TITLE "Free as a Bird"
PERFORMER "The Beatles"
REM DATE "1995-07-04"
REM DISCID 32033204
FILE "Free as a Bird.flac" WAVE
  TRACK 01 AUDIO
    TITLE "Free as a Bird"
    INDEX 01 00:00:00
  TRACK 02 AUDIO
    TITLE "I Saw Her Standing There"
    INDEX 00 04:24:47
    INDEX 01 04:26:22
  TRACK 03 AUDIO
    TITLE "This Boy"
    INDEX 00 07:17:37
    INDEX 01 07:17:67
  TRACK 04 AUDIO
    TITLE "Christmas Time (Is Here Again)"
    INDEX 00 10:35:37
    INDEX 01 10:35:40
